<svg aria-hidden="true" style="position: absolute; width: 0; height: 0; overflow: hidden;" version="1.1" xmlns="http://www.w3.org/2000/svg" xmlns:xlink="http://www.w3.org/1999/xlink">
<defs>
<symbol id="icon-disk" viewBox="0 0 32 32">
<path d="M11.757 11.758c-2.343 2.343-2.343 6.142 0 8.485s6.142 2.343 8.485 0c2.344-2.344 2.344-6.143 0-8.485-2.343-2.344-6.141-2.344-8.485 0zM17.414 17.414c-0.781 0.781-2.047 0.781-2.828 0s-0.781-2.047 0-2.828 2.047-0.781 2.828 0 0.781 2.047 0 2.828zM27.313 4.687c-6.248-6.249-16.379-6.249-22.627 0-6.249 6.248-6.249 16.379 0 22.627 6.248 6.249 16.379 6.249 22.627 0 6.249-6.249 6.249-16.379 0-22.627zM21.656 21.657c-3.123 3.124-8.189 3.124-11.313 0-3.125-3.125-3.125-8.189 0-11.314s8.19-3.124 11.313 0c3.125 3.125 3.125 8.189 0 11.314zM22.363 9.636l3.536-4.949 1.414 1.414-4.95 3.535z"></path>
</symbol>
<symbol id="icon-headphones" viewBox="0 0 32 32">
<path d="M9 18h-2v14h2c0.55 0 1-0.45 1-1v-12c0-0.55-0.45-1-1-1z"></path>
<path d="M23 18c-0.55 0-1 0.45-1 1v12c0 0.55 0.45 1 1 1h2v-14h-2z"></path>
<path d="M32 16c0-8.837-7.163-16-16-16s-16 7.163-16 16c0 1.919 0.338 3.759 0.958 5.464-0.609 1.038-0.958 2.246-0.958 3.536 0 3.526 2.608 6.443 6 6.929v-13.857c-0.997 0.143-1.927 0.495-2.742 1.012-0.168-0.835-0.258-1.699-0.258-2.584 0-7.18 5.82-13 13-13s13 5.82 13 13c0 0.885-0.088 1.749-0.257 2.584-0.816-0.517-1.745-0.87-2.743-1.013v13.858c3.392-0.485 6-3.402 6-6.929 0-1.29-0.349-2.498-0.958-3.536 0.62-1.705 0.958-3.545 0.958-5.465z"></path>
</symbol>
<symbol id="icon-vynil" viewBox="0 0 32 32">
<path d="M21.951 1.15c-8.202-3.284-17.515 0.702-20.8 8.905-3.286 8.204 0.702 17.518 8.905 20.802s17.516-0.702 20.801-8.905c3.286-8.204-0.703-17.516-8.906-20.802zM10.8 29.001c-7.166-2.87-10.662-11.034-7.793-18.201s11.035-10.663 18.202-7.792c7.166 2.869 10.662 11.034 7.793 18.2-2.871 7.167-11.035 10.662-18.202 7.793zM16.749 14.147c-1.025-0.411-2.19 0.088-2.601 1.113s0.088 2.189 1.112 2.6c1.025 0.411 2.191-0.088 2.601-1.112s-0.088-2.189-1.112-2.601zM15.632 16.933c-0.512-0.206-0.761-0.788-0.557-1.301 0.206-0.512 0.789-0.761 1.301-0.557 0.511 0.205 0.76 0.788 0.556 1.301s-0.788 0.761-1.3 0.557zM18.234 10.435c-3.076-1.232-6.568 0.264-7.8 3.339s0.264 6.568 3.339 7.8c3.076 1.232 6.568-0.263 7.8-3.339s-0.262-6.569-3.339-7.8zM14.518 19.717c-2.048-0.819-3.046-3.153-2.227-5.2 0.82-2.047 3.152-3.046 5.199-2.227 2.049 0.82 3.047 3.154 2.229 5.201-0.821 2.047-3.154 3.047-5.201 2.226zM23.432 18.978h-0.002c-0.817 2.039-2.383 3.556-4.256 4.366-0.007 0.003-0.011 0.011-0.021 0.015-0.254 0.108-0.547-0.009-0.656-0.264-0.109-0.253 0.010-0.547 0.262-0.655 1.646-0.705 3.025-2.038 3.744-3.834v0.001c0.103-0.257 0.394-0.382 0.65-0.278 0.256 0.102 0.381 0.393 0.279 0.649zM26.865 19.814c0.256 0.103 0.381 0.394 0.279 0.65-1.225 3.058-3.576 5.335-6.385 6.548-0.012 0.005-0.021 0.016-0.033 0.022-0.254 0.108-0.547-0.008-0.656-0.263-0.109-0.254 0.010-0.548 0.262-0.656 2.588-1.108 4.754-3.203 5.883-6.023 0.103-0.256 0.394-0.381 0.65-0.278zM25.008 19.071c0.256 0.103 0.381 0.394 0.279 0.65-1.021 2.549-2.98 4.445-5.32 5.456-0.011 0.006-0.017 0.015-0.027 0.020-0.254 0.108-0.547-0.009-0.656-0.263s0.010-0.548 0.264-0.657h-0.002c2.119-0.907 3.89-2.62 4.812-4.928 0.103-0.257 0.394-0.381 0.65-0.278zM13.513 8.912c0.109 0.255-0.009 0.548-0.263 0.658-1.646 0.704-3.025 2.038-3.743 3.832h-0.001c-0.102 0.256-0.393 0.381-0.65 0.278s-0.381-0.393-0.278-0.65h0.001c0.816-2.038 2.383-3.556 4.256-4.366 0.007-0.003 0.012-0.011 0.021-0.014 0.254-0.109 0.548 0.007 0.657 0.262zM11.938 5.235c0.109 0.254-0.009 0.547-0.262 0.657-2.588 1.108-4.753 3.203-5.883 6.022-0.103 0.257-0.394 0.381-0.65 0.278s-0.382-0.393-0.278-0.651c1.225-3.058 3.575-5.334 6.385-6.548 0.010-0.005 0.019-0.016 0.031-0.021 0.254-0.108 0.548 0.009 0.657 0.263zM12.462 7.729v0.003c-2.117 0.906-3.889 2.62-4.812 4.928-0.103 0.257-0.394 0.38-0.65 0.278-0.255-0.104-0.381-0.394-0.277-0.651 1.020-2.548 2.979-4.446 5.32-5.458 0.010-0.004 0.016-0.014 0.026-0.018 0.254-0.109 0.548 0.009 0.657 0.262 0.109 0.255-0.010 0.548-0.263 0.656z"></path>
</symbol>
<symbol id="icon-controller-fast-backward" viewBox="0 0 20 20">
<path d="M17.959 4.571l-7.203 4.949c0 0-0.279 0.201-0.279 0.481s0.279 0.479 0.279 0.479l7.203 4.951c0.572 0.38 1.041 0.099 1.041-0.626v-9.609c0-0.727-0.469-1.008-1.041-0.625zM8.883 4.571l-7.203 4.949c0 0-0.279 0.201-0.279 0.481s0.279 0.479 0.279 0.479l7.203 4.951c0.572 0.381 1.041 0.1 1.041-0.625v-9.61c0-0.727-0.469-1.008-1.041-0.625z"></path>
</symbol>
<symbol id="icon-chevron-with-circle-down" viewBox="0 0 20 20">
<path d="M12.505 8.698l-2.505 2.302-2.506-2.302c-0.198-0.196-0.518-0.196-0.718 0-0.197 0.196-0.197 0.515 0 0.71l2.864 2.807c0.199 0.196 0.52 0.196 0.717 0l2.864-2.807c0.199-0.195 0.198-0.514 0-0.71-0.197-0.196-0.517-0.196-0.716 0zM10 0.4c-5.302 0-9.6 4.298-9.6 9.6 0 5.303 4.298 9.6 9.6 9.6s9.6-4.297 9.6-9.6c0-5.302-4.298-9.6-9.6-9.6zM10 18.354c-4.615 0-8.354-3.74-8.354-8.354s3.739-8.354 8.354-8.354c4.613 0 8.354 3.74 8.354 8.354s-3.741 8.354-8.354 8.354z"></path>
</symbol>
<symbol id="icon-controller-jump-to-start" viewBox="0 0 20 20">
<path d="M14.959 4.571l-7.203 4.949c0 0-0.279 0.201-0.279 0.481s0.279 0.479 0.279 0.479l7.203 4.951c0.572 0.38 1.041 0.099 1.041-0.626v-9.609c0-0.727-0.469-1.008-1.041-0.625zM6 4h-1c-0.553 0-1 0.048-1 0.6v10.8c0 0.552 0.447 0.6 1 0.6h1c0.553 0 1-0.048 1-0.6v-10.8c0-0.552-0.447-0.6-1-0.6z"></path>
</symbol>
<symbol id="icon-controller-paus" viewBox="0 0 20 20">
<path d="M15 3h-2c-0.553 0-1 0.048-1 0.6v12.8c0 0.552 0.447 0.6 1 0.6h2c0.553 0 1-0.048 1-0.6v-12.8c0-0.552-0.447-0.6-1-0.6zM7 3h-2c-0.553 0-1 0.048-1 0.6v12.8c0 0.552 0.447 0.6 1 0.6h2c0.553 0 1-0.048 1-0.6v-12.8c0-0.552-0.447-0.6-1-0.6z"></path>
</symbol>
<symbol id="icon-controller-play" viewBox="0 0 20 20">
<path d="M15 10.001c0 0.299-0.305 0.514-0.305 0.514l-8.561 5.303c-0.624 0.409-1.134 0.106-1.134-0.669v-10.297c0-0.777 0.51-1.078 1.135-0.67l8.561 5.305c-0.001 0 0.304 0.215 0.304 0.514z"></path>
</symbol>
<symbol id="icon-trash" viewBox="0 0 20 20">
<path d="M3.389 7.113l1.101 10.908c0.061 0.461 2.287 1.977 5.51 1.979 3.225-0.002 5.451-1.518 5.511-1.979l1.102-10.908c-1.684 0.942-4.201 1.387-6.613 1.387-2.41 0-4.928-0.445-6.611-1.387zM13.168 1.51l-0.859-0.951c-0.332-0.473-0.692-0.559-1.393-0.559h-1.831c-0.7 0-1.061 0.086-1.392 0.559l-0.859 0.951c-2.57 0.449-4.434 1.64-4.434 2.519v0.17c0 1.547 3.403 2.801 7.6 2.801 4.198 0 7.601-1.254 7.601-2.801v-0.17c0-0.879-1.863-2.070-4.433-2.519zM12.070 4.34l-1.070-1.34h-2l-1.068 1.34h-1.7c0 0 1.862-2.221 2.111-2.522 0.19-0.23 0.384-0.318 0.636-0.318h2.043c0.253 0 0.447 0.088 0.637 0.318 0.248 0.301 2.111 2.522 2.111 2.522h-1.7z"></path>
</symbol>
<symbol id="icon-upload" viewBox="0 0 20 20">
<path d="M8 12h4v-6h3l-5-5-5 5h3v6zM19.338 13.532c-0.21-0.224-1.611-1.723-2.011-2.114-0.265-0.259-0.644-0.418-1.042-0.418h-1.757l3.064 2.994h-3.544c-0.102 0-0.194 0.052-0.24 0.133l-0.816 1.873h-5.984l-0.816-1.873c-0.046-0.081-0.139-0.133-0.24-0.133h-3.544l3.063-2.994h-1.756c-0.397 0-0.776 0.159-1.042 0.418-0.4 0.392-1.801 1.891-2.011 2.114-0.489 0.521-0.758 0.936-0.63 1.449l0.561 3.074c0.128 0.514 0.691 0.936 1.252 0.936h16.312c0.561 0 1.124-0.422 1.252-0.936l0.561-3.074c0.126-0.513-0.142-0.928-0.632-1.449z"></path>
</symbol>
<symbol id="icon-chat" viewBox="0 0 20 20">
<path d="M5.8 12.2v-6.2h-3.8c-1.1 0-2 0.9-2 2v6c0 1.1 0.9 2 2 2h1v3l3-3h5c1.1 0 2-0.9 2-2v-1.82c-0.064 0.014-0.132 0.021-0.2 0.021l-7-0.001zM18 1h-9c-1.1 0-2 0.9-2 2v8h7l3 3v-3h1c1.1 0 2-0.899 2-2v-6c0-1.1-0.9-2-2-2z"></path>
</symbol>
<symbol id="icon-cross" viewBox="0 0 20 20">
<path d="M14.348 14.849c-0.469 0.469-1.229 0.469-1.697 0l-2.651-3.030-2.651 3.029c-0.469 0.469-1.229 0.469-1.697 0-0.469-0.469-0.469-1.229 0-1.697l2.758-3.15-2.759-3.152c-0.469-0.469-0.469-1.228 0-1.697s1.228-0.469 1.697 0l2.652 3.031 2.651-3.031c0.469-0.469 1.228-0.469 1.697 0s0.469 1.229 0 1.697l-2.758 3.152 2.758 3.15c0.469 0.469 0.469 1.229 0 1.698z"></path>
</symbol>
<symbol id="icon-edit" viewBox="0 0 20 20">
<path d="M17.561 2.439c-1.442-1.443-2.525-1.227-2.525-1.227l-12.826 12.825-1.010 4.762 4.763-1.010 12.826-12.823c-0.001 0 0.216-1.083-1.228-2.527zM5.68 17.217l-1.624 0.35c-0.156-0.293-0.345-0.586-0.69-0.932s-0.639-0.533-0.932-0.691l0.35-1.623 0.47-0.469c0 0 0.883 0.018 1.881 1.016 0.997 0.996 1.016 1.881 1.016 1.881l-0.471 0.468z"></path>
</symbol>
</defs>
</svg>
